<svg xmlns="http://www.w3.org/2000/svg" width="100" height="100" viewBox="0 0 100 100">
  <defs>
    <linearGradient id="g" x1="0" y1="0" x2="1" y2="1">
      <stop offset="0" stop-color="#059669"/>
      <stop offset="1" stop-color="#10D99A"/>
    </linearGradient>
  </defs>
  <rect width="100" height="100" rx="22" fill="url(#g)"/>
  <g transform="translate(27.5,27.5) scale(1.875)" fill="none" stroke="#ffffff" stroke-width="2.2" stroke-linecap="round" stroke-linejoin="round">
    <path d="M4 2v20l2-1 2 1 2-1 2 1 2-1 2 1 2-1 2 1V2l-2 1-2-1-2 1-2-1-2 1-2-1-2 1Z"/>
    <g transform="translate(12,12) scale(0.62) translate(-12,-12)" stroke-width="3.4">
      <path d="M6 3h12"/>
      <path d="M6 8h12"/>
      <path d="M6 13l8.5 8"/>
      <path d="M6 13h3"/>
      <path d="M9 13c6.667 0 6.667-10 0-10"/>
    </g>
  </g>
</svg>
